<svg version="1.2" xmlns="http://www.w3.org/2000/svg" viewBox="0 0 64 64" width="64" height="64"><style>.a{stroke:#000;stroke-width:0}</style><path class="a" d="m1.2 37.2q0.5-2.9 3.7-6.7 3.3-3.8 8.1-3.8 2.4 0 4.4 1.2 2.1 1.2 3 3.1 2.9-4.3 7-4.3 2.6 0 4.5 1.5 1.9 1.5 1.9 4.1 0 2-0.9 3.2-1 1.3-1.9 1.5-0.9 0.3-1.6 0.3-1.3 0-2.2-0.8-0.8-0.7-0.8-2 0-3.1 3.5-4.3-0.8-0.9-2.8-0.9-0.9 0-1.3 0.1-2.7 1.1-3.9 4.6-4.2 15.3-4.2 17.8 0 2 1.1 2.8 1.1 0.8 2.5 0.8 2.5 0 5-2.2 2.5-2.3 3.4-5.6 0.3-0.7 0.5-0.8 0.2-0.1 1.1-0.1h0.2q1.1 0 1.1 0.5 0 0.1-0.1 0.8-1.2 3.9-4.4 7-3.2 3-7.4 3-4.9 0-7.4-4.4-2.8 4.3-6.5 4.3h-0.4q-3.4 0-4.9-1.8-1.4-1.8-1.5-3.8 0-2.2 1.3-3.6 1.3-1.4 3.1-1.4 3 0 3 2.9 0 1.4-0.8 2.5-0.8 1-1.6 1.4-0.8 0.3-0.9 0.3l-0.2 0.1q0 0 0.4 0.2 0.4 0.3 1.1 0.5 0.7 0.3 1.3 0.2 2.5 0 4.3-3.1 0.7-1.1 1.6-4.7 1-3.6 2-7.5 1-3.8 1.1-4.5 0.4-1.9 0.4-2.7 0-2-1.1-2.8-1-0.8-2.4-0.8-2.7 0-5.2 2.2-2.4 2.2-3.4 5.7-0.1 0.6-0.3 0.7-0.2 0-1.1 0.1h-1q-0.4-0.4-0.4-0.8zm39.4-22.6q0-0.7 0.8-2.3 0.7-1.7 2.3-3.5 1.7-1.8 3.7-1.8 2 0 3.2 1.2 1.2 1.1 1.3 3.1-0.1 0.9-0.2 1 0 0.2-0.7 2.3-0.8 2.1-1.7 4.7-0.8 2.7-0.7 4.2 0 2.1 0.6 3 0.7 0.8 2.1 0.8 1.1 0 2.1-0.5 1-0.5 1.5-1.1 0.6-0.6 1.4-1.6 0-0.1 0.2-1 0.3-0.9 0.7-2.9 0.4-2 0.9-3.6 1.9-7.4 2.1-7.7 0.6-1.3 2.1-1.3 0.6 0 1 0.3 0.4 0.4 0.6 0.6 0.1 0.2 0.1 0.4 0 0.7-2.4 10.3-2.4 9.7-2.8 10.6-1.4 4-4.7 6.4-3.4 2.4-6.8 2.5-2.2 0-3.9-1.1-1.7-1.1-1.7-3.2 0-1.1 0.4-1.8 0.3-0.8 0.9-1.1 0.6-0.3 1-0.5 0.4-0.1 0.8-0.1 2.2 0 2.2 2 0 1-0.6 1.7-0.6 0.8-1.1 1-0.6 0.3-0.7 0.3h-0.1q0.1 0.2 0.9 0.6 0.8 0.3 1.7 0.3h0.4q0.8 0 1.2-0.1 1.7-0.4 3-1.8 1.4-1.4 2.2-3.1 0.7-1.6 1.1-2.7 0.4-1.1 0.4-1.5l-0.3 0.2q-0.3 0.2-0.9 0.6-0.7 0.3-1.3 0.6-1 0.2-1.9 0.2-2.3 0-4-1.1-1.7-1.1-2.3-3.5 0-0.3 0-1.5 0-2.8 1.7-7.3 1.7-4.5 1.7-5.7 0 0 0-0.1 0-0.4 0-0.6 0-0.1-0.2-0.3-0.2-0.2-0.5-0.2h-0.2q-1.2 0-2.1 0.9-0.9 1-1.5 2-0.5 1.1-0.8 2.1-0.3 1-0.4 1.1-0.1 0.1-0.8 0.1h-0.7q-0.3-0.3-0.3-0.5z"/></svg>