<svg version="1.2" xmlns="http://www.w3.org/2000/svg" viewBox="0 0 20 20" width="20" height="20"><style/><path fill-rule="evenodd" d="m19 10c0 5-4 9-9 9-5 0-9-4-9-9 0-5 4-9 9-9 5 0 9 4 9 9zm-11-2.8c0-1.5-0.6-2.7-1.3-2.7-0.6 0-1.2 1.2-1.2 2.8 0 1.5 0.6 2.7 1.3 2.7 0.6 0 1.2-1.2 1.2-2.8zm6.5 0c0-1.5-0.6-2.7-1.3-2.7-0.6 0-1.2 1.2-1.2 2.8 0 1.5 0.6 2.7 1.3 2.7 0.6 0 1.2-1.2 1.2-2.8zm-4.5 4.8c-1.8 0-3-0.2-4.5-0.5-0.3-0.1-1 0-1 1 0 2 2.3 4.5 5.5 4.5 3.2 0 5.5-2.5 5.5-4.5 0-1-0.7-1.1-1-1-1.5 0.3-2.7 0.5-4.5 0.5zm-4.5 0.5c0 0 1.5 0.5 4.5 0.5 3 0 4.5-0.5 4.5-0.5 0 0-1 2-4.5 2-3.5 0-4.5-2-4.5-2z"/></svg>