<svg xmlns="http://www.w3.org/2000/svg" viewBox="0 0 20 20" width="20" height="20"><style>tspan { white-space:pre }.shp0 { fill: #ffffff } .shp1 { fill: #666666 } </style><path class="shp0" d="M19 10C19 14.97 14.97 19 10 19C5.03 19 1 14.97 1 10C1 5.03 5.03 1 10 1C14.97 1 19 5.03 19 10Z" /><path class="shp1" d="M6.75 10C6.06 10 5.5 8.77 5.5 7.25C5.5 5.73 6.06 4.5 6.75 4.5C7.44 4.5 8 5.73 8 7.25C8 8.77 7.44 10 6.75 10Z" /><path class="shp1" d="M13.25 10C12.56 10 12 8.77 12 7.25C12 5.73 12.56 4.5 13.25 4.5C13.94 4.5 14.5 5.73 14.5 7.25C14.5 8.77 13.94 10 13.25 10Z" /><path class="shp1" d="M10 12C8.19 12 6.99 11.79 5.5 11.5C5.16 11.44 4.5 11.5 4.5 12.5C4.5 14.5 6.79 17 10 17C13.2 17 15.5 14.5 15.5 12.5C15.5 11.5 14.84 11.44 14.5 11.5C13.02 11.79 11.81 12 10 12Z" /><path class="shp0" d="M5.5 12.5C5.5 12.5 7 13 10 13C13 13 14.5 12.5 14.5 12.5C14.5 12.5 13.5 14.5 10 14.5C6.5 14.5 5.5 12.5 5.5 12.5Z" /></svg>
