<svg xmlns="http://www.w3.org/2000/svg" viewBox="0 0 36 36" width="20" height="20"><style>tspan { white-space:pre }.shp0 { fill: #ffffff } .shp1 { fill: #666666 } </style><path class="shp0" d="M36 18C36 27.94 27.94 36 18 36C8.06 36 0 27.94 0 18C0 8.06 8.06 0 18 0C27.94 0 36 8.06 36 18Z" /><path class="shp1" d="M11.5 18C10.12 18 9 15.54 9 12.5C9 9.46 10.12 7 11.5 7C12.88 7 14 9.46 14 12.5C14 15.54 12.88 18 11.5 18Z" /><path class="shp1" d="M24.5 18C23.12 18 22 15.54 22 12.5C22 9.46 23.12 7 24.5 7C25.88 7 27 9.46 27 12.5C27 15.54 25.88 18 24.5 18Z" /><path class="shp1" d="M18 22C14.38 22 11.97 21.58 9 21C8.32 20.87 7 21 7 23C7 27 11.59 32 18 32C24.4 32 29 27 29 23C29 21 27.68 20.87 27 21C24.03 21.58 21.62 22 18 22Z" /><path class="shp0" d="M9 23C9 23 12 24 18 24C24 24 27 23 27 23C27 23 25 27 18 27C11 27 9 23 9 23Z" /></svg>
