<svg version="1.2" xmlns="http://www.w3.org/2000/svg" viewBox="0 0 64 64" width="64" height="64">
	<style>
		.s0 { fill: #000000 } 
	</style>
	<path id="Layer" fill-rule="evenodd" class="s0" d="m56.8 48.1c-0.4-0.4-0.6-0.8-0.7-1.3 0-0.5 0.1-1 0.4-1.4 0.4-0.4 0.8-0.7 1.3-0.7 0.5-0.1 1 0.1 1.4 0.4l3.3 2.6q0.4 0.4 0.6 0.8 0.2 0.5 0.1 1-0.1 0.5-0.4 0.9-0.4 0.4-0.8 0.6l-29.4 12.8q-0.1 0.1-0.3 0.1-0.2 0-0.4 0-0.2 0-0.4 0-0.2 0-0.4-0.1l-29.4-12.8q-0.3-0.2-0.6-0.4-0.3-0.3-0.4-0.7-0.1-0.3-0.1-0.7 0-0.4 0.1-0.7 0.1-0.1 0.1-0.2 0.1-0.1 0.1-0.2 0.1-0.1 0.2-0.2 0.1-0.1 0.2-0.2l3-2.5c0.4-0.3 0.9-0.5 1.4-0.4 0.5 0 1 0.3 1.3 0.7 0.3 0.4 0.5 0.9 0.4 1.4 0 0.5-0.2 0.9-0.6 1.3l-0.7 0.5 25.8 11.2 25.7-11.2zm-5.9-23.7c-0.5-0.3-0.8-0.7-1-1.2-0.1-0.5-0.1-1 0.2-1.4 0.2-0.5 0.6-0.8 1.1-1 0.5-0.1 1-0.1 1.5 0.2l9.5 5q0.5 0.2 0.8 0.7 0.2 0.5 0.2 1.1 0 0.6-0.4 1-0.3 0.5-0.9 0.7l-29.3 12.7q-0.1 0.1-0.3 0.1-0.2 0.1-0.4 0.1-0.2 0-0.4-0.1-0.2 0-0.4-0.1l-29.4-12.8q-0.5-0.2-0.8-0.6-0.3-0.5-0.3-1-0.1-0.6 0.2-1.1 0.3-0.5 0.8-0.7l9.2-4.9c0.5-0.2 1-0.3 1.5-0.1 0.4 0.2 0.8 0.5 1.1 0.9 0.2 0.5 0.3 1 0.1 1.5-0.1 0.5-0.4 0.9-0.9 1.1l-5.7 3 25 10.9 25-10.9zm6.3 13c-0.4-0.4-0.6-0.8-0.6-1.3-0.1-0.6 0.1-1.1 0.4-1.4 0.4-0.4 0.8-0.7 1.3-0.7 0.5 0 1 0.1 1.4 0.4l2.8 2.4q0.3 0.3 0.5 0.6 0.2 0.4 0.2 0.8 0 0.3-0.1 0.7-0.1 0.4-0.4 0.7-0.1 0.1-0.1 0.1-0.1 0.1-0.2 0.2-0.1 0.1-0.3 0.1-0.1 0.1-0.2 0.1l-29.3 12.7q-0.2 0.1-0.3 0.2-0.2 0-0.4 0-0.2 0-0.4 0-0.2-0.1-0.4-0.2l-29.4-12.8q-0.4-0.1-0.6-0.4-0.3-0.3-0.4-0.6-0.2-0.4-0.2-0.7 0-0.4 0.2-0.8 0-0.1 0.1-0.2 0.1-0.1 0.1-0.2 0.1-0.1 0.2-0.1 0.1-0.1 0.2-0.2l3-2.5c0.3-0.3 0.9-0.5 1.4-0.4 0.5 0 0.9 0.3 1.3 0.6 0.3 0.4 0.4 0.9 0.4 1.4 0 0.6-0.3 1-0.7 1.3l-0.6 0.6 25.8 11.2 25.8-11.2zm-9.4-23.9v4.5q0 0.2-0.1 0.4-0.2 0.2-0.5 0.3l-3.7 0.6q-0.4 1.1-0.8 1.8 0.7 1 2.2 2.8 0.2 0.2 0.2 0.5 0 0.3-0.2 0.5-0.6 0.7-2 2.2-1.5 1.4-1.9 1.4-0.3 0-0.5-0.2l-2.8-2.2q-0.9 0.5-1.9 0.8-0.3 2.8-0.6 3.8-0.1 0.5-0.7 0.5h-4.5q-0.3 0-0.5-0.1-0.2-0.2-0.2-0.5l-0.6-3.7q-1-0.3-1.8-0.7l-2.9 2.1q-0.2 0.2-0.5 0.2-0.3 0-0.5-0.2-2.6-2.3-3.4-3.4-0.1-0.2-0.1-0.5 0-0.2 0.2-0.5 0.3-0.4 1-1.3 0.7-0.9 1.1-1.4-0.6-1-0.8-2l-3.8-0.6q-0.2 0-0.4-0.2-0.1-0.3-0.1-0.5v-4.5q0-0.3 0.1-0.5 0.2-0.2 0.4-0.3l3.8-0.5q0.3-1 0.8-1.9-0.8-1.1-2.2-2.8-0.2-0.2-0.2-0.5 0-0.2 0.2-0.4 0.5-0.8 2-2.2 1.4-1.5 1.9-1.5 0.3 0 0.5 0.2l2.8 2.2q0.9-0.5 1.9-0.8 0.3-2.7 0.6-3.7 0.1-0.6 0.7-0.6h4.5q0.3 0 0.5 0.2 0.2 0.1 0.2 0.4l0.6 3.7q1 0.4 1.8 0.8l2.9-2.2q0.2-0.2 0.5-0.2 0.2 0 0.5 0.2 2.6 2.4 3.3 3.5 0.2 0.1 0.2 0.4 0 0.3-0.2 0.5-0.3 0.4-1 1.3-0.8 1-1.1 1.5 0.5 1 0.8 2l3.7 0.5q0.3 0.1 0.5 0.3 0.1 0.2 0.1 0.5zm-11.9 5.8q1.5-1.5 1.5-3.6 0-2.2-1.5-3.7-1.5-1.5-3.7-1.5-2.1 0-3.6 1.5-1.6 1.5-1.6 3.7 0 2.1 1.6 3.6 1.5 1.6 3.6 1.6 2.2 0 3.7-1.6z"/>
</svg>