<svg version="1.2" baseProfile="tiny-ps" xmlns="http://www.w3.org/2000/svg" viewBox="0 0 18 18" width="18" height="18">
	<title>icon-svg</title>
	<style>
		tspan { white-space:pre }
		.shp0 { fill: #474747 } 
		.shp1 { fill: #e0e0e0 } 
	</style>
	<path id="Layer" class="shp0" d="M0 0L18 0L18 18L0 18L0 0Z" />
	<path id="Layer" fill-rule="evenodd" class="shp1" d="M17.02 7.83C15.88 8.88 14.76 8.93 14.43 10.23C14.31 10.65 14.43 11.52 15.31 11.9C17.31 12.74 16.71 13.83 16.41 14.24C16.33 14.34 16.24 14.45 16.17 14.55C14.92 16.29 11.88 18.02 9.09 18.02C3.04 18.02 -1.9 12.05 0.71 6.04C2.53 1.87 7.2 0.01 10.87 0C13.27 0 15.42 0.93 16.36 1.8C19.17 4.38 17.65 7.26 17.02 7.83ZM2.51 6.58C2.77 7.39 3.79 7.8 4.82 7.48C5.86 7.17 6.49 6.25 6.24 5.44C5.98 4.62 4.96 4.23 3.92 4.54C2.89 4.86 2.26 5.77 2.51 6.58ZM3.8 12C4.79 11.69 5.41 10.8 5.17 10.01C4.93 9.21 3.92 8.82 2.92 9.12C1.93 9.44 1.31 10.32 1.55 11.12C1.79 11.91 2.81 12.32 3.8 12ZM8.2 14.18C7.96 13.38 6.94 12.99 5.95 13.31C4.96 13.62 4.34 14.52 4.58 15.3C4.82 16.08 5.84 16.49 6.84 16.17C7.83 15.86 8.44 14.97 8.2 14.18ZM10.33 2.22C10.08 1.44 9.06 1.03 8.07 1.35C7.08 1.66 6.46 2.56 6.7 3.34C6.94 4.12 7.95 4.51 8.95 4.21C9.96 3.91 10.57 3.01 10.33 2.22ZM13.8 12.33C13.53 11.54 12.51 11.18 11.55 11.51C10.59 11.84 10.02 12.74 10.29 13.52C10.56 14.31 11.56 14.67 12.54 14.34C13.51 14.01 14.08 13.11 13.8 12.33Z" />
</svg>